<svg id="branding_icon" data-name="branding icon" xmlns="http://www.w3.org/2000/svg" xmlns:xlink="http://www.w3.org/1999/xlink" width="153" height="149" viewBox="0 0 153 149">
  <defs>
    <clipPath id="clip-path">
      <rect id="Rectangle_49" data-name="Rectangle 49" width="153" height="149" transform="translate(0 -0.37)" fill="none"/>
    </clipPath>
  </defs>
  <g id="Group_81" data-name="Group 81" transform="translate(0 0.37)">
    <g id="Group_80" data-name="Group 80" clip-path="url(#clip-path)">
      <path id="Path_290" data-name="Path 290" d="M303.794,51.148a1.356,1.356,0,0,0-1.934-.022l-3.4,3.4L290.2,52.007l1.8,8.981,1.938,13.219,7.457,16.158v22.284h11.556l7.239-7.808h3.922a1.358,1.358,0,0,0,1.353-1.386,77.075,77.075,0,0,0-21.669-52.306" transform="translate(-177.077 -31.577)" fill="#fff4cb"/>
      <path id="Path_291" data-name="Path 291" d="M263.215,115.953l-10.439-14.718h-6.444s-6.36-1.588-6.517-1.706-7.716,8.858-7.435,8.61,1.2,5.85,1.2,5.85A28.188,28.188,0,0,1,242,134.118l3.386,5.639H255.5l4.445-5.639,4.578-4.722Z" transform="translate(-139.421 -59.886)" fill="#ffde5d"/>
      <path id="Path_292" data-name="Path 292" d="M289.494,186H275.035l-7.323,8.086-5.364,14.769v7.778l10.222,10.225,7.871,2.466,12.728-15.418,1.846-22.444Z" transform="translate(-157.407 -111.769)" fill="#6be8d9"/>
      <path id="Path_293" data-name="Path 293" d="M221.931,281.746l-4.68,2.56-7.153-1.149-11.833,10.2-18.129,1.953-3.744,5.914-5.021,3.422-1.224,7.056,6.244,3.783a71.813,71.813,0,0,0,50.941-21.1l1.544-6.735Z" transform="translate(-102.087 -169.215)" fill="#b0e7c9"/>
      <path id="Path_294" data-name="Path 294" d="M206.956,239.434l-6.649-6.829-5.019,1.35a28.192,28.192,0,0,1-19.991,8.279l-4.542,1.694-2.431,9.493,6.974,3.867,5.638,5.628,17.092-3,8.928-10.9-1.022-4.417Z" transform="translate(-100.993 -139.731)" fill="#6ed5a1"/>
      <path id="Path_295" data-name="Path 295" d="M120.53,272.151l-2.95-4.832L105.212,263.9l-9.5-6.517-5.816,2.081L84,257.379l-6.959,6.075,2.63,6.229-1.856,8.9L95.6,289.3l20.655,2.872,4.275-5.563,4.45-2.389V274.154Z" transform="translate(-46.225 -154.595)" fill="#82aee3"/>
      <path id="Path_296" data-name="Path 296" d="M38.557,212.527,27.689,197.895l-2.926-16.717-4.85-3.275-2.255-5.4H7.626l-1.978,5.4a71.818,71.818,0,0,0,21.1,50.943l4.158,1.638L38.557,223l-1.72-4.237Z" transform="translate(-3.389 -103.671)" fill="#baa4fb"/>
      <path id="Path_297" data-name="Path 297" d="M92.272,198.909a28.191,28.191,0,0,1-8.281-19.99l-2.033-4.72-10.553.644-2.469,4.076-5.673,4.064,2.561,20.568,9.6,7.027,6.2-1.025,3.634,3.248,8.228-7.877Z" transform="translate(-37.957 -104.688)" fill="#8a63ff"/>
      <path id="Path_298" data-name="Path 298" d="M63.743,86.853l-7.381-7.681L51.9,81.048l-5.259-.969S32.3,97.163,32.183,97.64,30.75,115.8,30.75,115.8l4.224,6.107,1.33,4.853h10.88l2.245-4.853,5.81-2.283,8.5-21.5-1.623-6.847Z" transform="translate(-18.45 -47.673)" fill="#dfa8d2"/>
      <path id="Path_299" data-name="Path 299" d="M138.272,71.89l-2.2-3.867-14.688,1.852-13.749,9.791v4.916L106.613,90.6l6.613,5.875,5.056-1.248a28.174,28.174,0,0,1,19.99-8.281l4.409-2.79.491-8.241Z" transform="translate(-63.967 -40.983)" fill="#f847e3"/>
      <path id="Path_300" data-name="Path 300" d="M113.99,9.167l-5.406-3.272A71.813,71.813,0,0,0,57.641,27l-.508,5.5L63.5,38.816l4.23-1.733,7.035,2.746,14.307-9.083L105.2,25.934l3.384-5.778,5.869-2.024Z" transform="translate(-34.279 -3.707)" fill="#f8a2ee"/>
      <path id="Path_301" data-name="Path 301" d="M206.363,31.247l-22.5-4.622-4.812,5.969-4.472,2.5.462,9.981,4.01,1.98,2.489,4.084,20.305,8.607,7.7-.139,10.222-10.222,1.062-5.982Z" transform="translate(-104.745 -16.145)" fill="#fead8a"/>
      <path id="Path_302" data-name="Path 302" d="M319.087,186a71.816,71.816,0,0,1-21.1,50.943L287.9,226.859A57.608,57.608,0,0,0,304.826,186Z" transform="translate(-172.739 -111.769)" fill="#a8f0e8"/>
      <path id="Path_303" data-name="Path 303" d="M244.016,186h15.052a43.182,43.182,0,0,1-12.687,30.633l-10.646-10.641v0A28.191,28.191,0,0,0,244.016,186" transform="translate(-141.438 -111.769)" fill="#22d4bf"/>
      <path id="Path_304" data-name="Path 304" d="M216.395,262.582l10.222,10.225a57.613,57.613,0,0,1-40.858,16.924V275.273a43.191,43.191,0,0,0,30.637-12.691" transform="translate(-111.453 -157.717)" fill="#91deb6"/>
      <path id="Path_305" data-name="Path 305" d="M17.608,179.587c0-2.2.1-4.381.278-6.536l-.228-.547H7.626l-1.978,5.4a71.818,71.818,0,0,0,21.1,50.943l4.158,1.638,3.231-3.162a76.834,76.834,0,0,1-16.532-47.734" transform="translate(-3.389 -103.671)" fill="#cbbafc"/>
      <path id="Path_306" data-name="Path 306" d="M109.345,305.069V319.33a71.813,71.813,0,0,1-50.943-21.1l10.086-10.084a57.6,57.6,0,0,0,40.857,16.924" transform="translate(-35.041 -173.055)" fill="#b2caec"/>
      <path id="Path_307" data-name="Path 307" d="M139.807,244.259v15.054a43.187,43.187,0,0,1-30.635-12.691l10.645-10.641a28.189,28.189,0,0,0,19.99,8.279" transform="translate(-65.502 -141.756)" fill="#528fd8"/>
      <path id="Path_308" data-name="Path 308" d="M68.455,216.633,58.233,226.856A57.6,57.6,0,0,1,41.309,186H55.764a43.184,43.184,0,0,0,12.691,30.633" transform="translate(-24.785 -111.769)" fill="#aa90f8"/>
      <path id="Path_309" data-name="Path 309" d="M101.822,6.688A71.813,71.813,0,0,0,57.641,27.471l-.508,5.5,4.331,4.3A77.354,77.354,0,0,1,101.822,6.688" transform="translate(-34.279 -4.183)" fill="#fb8eee"/>
      <path id="Path_310" data-name="Path 310" d="M26.75,58.645,36.836,68.732a57.6,57.6,0,0,0-16.924,40.856H5.648a71.818,71.818,0,0,1,21.1-50.943" transform="translate(-3.389 -35.357)" fill="#e6b9da"/>
      <path id="Path_311" data-name="Path 311" d="M90.136,109.418l10.645,10.644a28.191,28.191,0,0,0-8.281,19.99H77.445a43.184,43.184,0,0,1,12.691-30.633" transform="translate(-46.466 -65.82)" fill="#d691c6"/>
      <path id="Path_312" data-name="Path 312" d="M226.474,36.944a57.585,57.585,0,0,0-40.716-16.788V5.895a71.825,71.825,0,0,1,50.8,20.963l0,0Z" transform="translate(-111.453 -3.707)" fill="#ffc5ad"/>
      <path id="Path_313" data-name="Path 313" d="M216.252,90.243l-10.644,10.644a28.18,28.18,0,0,0-19.85-8.143V77.691a43.181,43.181,0,0,1,30.494,12.552" transform="translate(-111.453 -46.784)" fill="#fd9468"/>
      <path id="Path_314" data-name="Path 314" d="M124.474,41.547V56A43.188,43.188,0,0,0,93.839,68.7L83.617,58.474a57.581,57.581,0,0,1,40.857-16.927" transform="translate(-50.17 -25.098)" fill="#fe83ef"/>
      <path id="Path_315" data-name="Path 315" d="M296.4,120.224H280.889A46.365,46.365,0,0,0,267.27,87.342l10.969-10.971A61.814,61.814,0,0,1,296.4,120.224" transform="translate(-160.36 -45.992)" fill="#ffe995"/>
      <path id="Path_316" data-name="Path 316" d="M63.29,301.141,58.4,306.027A72,72,0,0,0,88.8,324.149,77.538,77.538,0,0,1,63.29,301.141" transform="translate(-35.041 -180.852)" fill="#82aee3"/>
    </g>
  </g>
  <g id="Group_83" data-name="Group 83" transform="translate(0 0.37)">
    <g id="Group_82" data-name="Group 82" clip-path="url(#clip-path)">
      <path id="Path_317" data-name="Path 317" d="M33.053,64.95l-6.3-6.3a71.818,71.818,0,0,0-21.1,50.943H17.63A76.8,76.8,0,0,1,33.053,64.95" transform="translate(-3.389 -35.357)" fill="#dfa8d2"/>
      <path id="Path_318" data-name="Path 318" d="M131.3,19.286a3.616,3.616,0,0,0-5.163-.052L125.076,20.3a74.483,74.483,0,0,0-15.86-11.355,2.261,2.261,0,1,0-2.128,3.989A69.975,69.975,0,0,1,121.878,23.5l-6.9,6.9A59.583,59.583,0,0,0,76.566,14.55V4.8A69.446,69.446,0,0,1,98.533,9.087a2.26,2.26,0,1,0,1.57-4.239A74.375,74.375,0,0,0,8.725,39.59a2.261,2.261,0,1,0,3.989,2.13,70.11,70.11,0,0,1,10.667-14.9l6.921,6.92A59.809,59.809,0,0,0,14.309,72.286H4.562A69.435,69.435,0,0,1,8.878,50.229a2.261,2.261,0,1,0-4.237-1.576,74.319,74.319,0,0,0,136.31,58.774,2.262,2.262,0,1,0-4.055-2,69.939,69.939,0,0,1-11.675,16.842l-6.914-6.914A59.821,59.821,0,0,0,134.3,76.808h9.749A69.553,69.553,0,0,1,140.47,96.78a2.261,2.261,0,1,0,4.286,1.441,74.078,74.078,0,0,0,3.816-21.413h1.417a3.621,3.621,0,0,0,3.614-3.689,79.3,79.3,0,0,0-22.3-53.832m-8.566,53A48.369,48.369,0,0,0,110.065,41.7l7.783-7.782a59.292,59.292,0,0,1,15.891,38.364ZM4.562,76.808h9.747A59.81,59.81,0,0,0,30.3,115.352l-6.911,6.911A69.241,69.241,0,0,1,4.562,76.808m24.213,0a45.405,45.405,0,0,0,11.751,28.319L33.5,112.154A55.3,55.3,0,0,1,18.835,76.808Zm75.98-4.522c0-.027,0-.052-.008-.078a30.376,30.376,0,0,0-5.992-15.928l.016,0q-.7-.928-1.467-1.809l9.564-9.563a43.873,43.873,0,0,1,11.341,27.383ZM43.725,108.324a45.407,45.407,0,0,0,28.319,11.752v9.943A55.307,55.307,0,0,1,36.7,115.351ZM54.384,97.666A30.414,30.414,0,0,0,72.043,105v10.552a40.9,40.9,0,0,1-25.118-10.425ZM76.566,105a30.414,30.414,0,0,0,17.66-7.33l7.458,7.457a40.9,40.9,0,0,1-25.118,10.425ZM74.3,100.556a26.01,26.01,0,1,1,26.01-26.01,26.039,26.039,0,0,1-26.01,26.01M72.043,44.1a30.423,30.423,0,0,0-17.661,7.33l-7.457-7.457A40.9,40.9,0,0,1,72.043,33.546Zm22.032,7.2a30.413,30.413,0,0,0-17.51-7.2V33.546a40.74,40.74,0,0,1,24.982,10.281ZM72.043,19.075v9.943A45.4,45.4,0,0,0,43.725,40.77L36.7,33.743A55.311,55.311,0,0,1,72.043,19.075M33.5,30.544l-6.922-6.922A69.668,69.668,0,0,1,72.043,4.8v9.75A59.809,59.809,0,0,0,33.5,30.544m17.686,24.08a30.423,30.423,0,0,0-7.33,17.662H33.3A40.9,40.9,0,0,1,43.729,47.168Zm-7.33,22.183a30.423,30.423,0,0,0,7.33,17.662l-7.457,7.456A40.9,40.9,0,0,1,33.3,76.808ZM33.5,118.549a59.809,59.809,0,0,0,38.544,15.992v9.747A69.241,69.241,0,0,1,26.588,125.46Zm43.066,1.526a45.408,45.408,0,0,0,28.319-11.752l7.025,7.027a55.309,55.309,0,0,1-35.345,14.668ZM97.424,94.468a30.4,30.4,0,0,0,7.328-17.66h10.553a40.9,40.9,0,0,1-10.425,25.118Zm14.358-60.873-7.033,7.033A45.232,45.232,0,0,0,76.566,29.016V19.075a55.087,55.087,0,0,1,35.216,14.519M33.5,36.94l7.027,7.027A45.405,45.405,0,0,0,28.776,72.286H18.833A55.3,55.3,0,0,1,33.5,36.94m78.12,96.584a69.518,69.518,0,0,1-35.056,10.769v-9.75a59.8,59.8,0,0,0,38.543-15.992l6.916,6.914a70.2,70.2,0,0,1-10.4,8.06m3.488-21.369-7.027-7.027a45.407,45.407,0,0,0,11.752-28.319h9.938a55.307,55.307,0,0,1-14.663,35.346m23.155-39.868a63.786,63.786,0,0,0-17.216-41.564l7.633-7.635a74.772,74.772,0,0,1,20.379,49.2Z" transform="translate(0 -0.315)"/>
    </g>
  </g>
</svg>
