<svg id="Component_56_1" data-name="Component 56 – 1" xmlns="http://www.w3.org/2000/svg" xmlns:xlink="http://www.w3.org/1999/xlink" width="143" height="154" viewBox="0 0 143 154">
  <defs>
    <clipPath id="clip-path">
      <rect id="Rectangle_47" data-name="Rectangle 47" width="143" height="154" transform="translate(0.148 0.472)" fill="none"/>
    </clipPath>
  </defs>
  <g id="Group_76" data-name="Group 76" transform="translate(-0.148 -0.472)">
    <g id="Group_75" data-name="Group 75" clip-path="url(#clip-path)">
      <path id="Path_277" data-name="Path 277" d="M298.134,32.194l-8.558-3.541a.876.876,0,0,1-.475-.476l-3.541-8.558a.876.876,0,0,1,.191-.956L298.51,5.9a.879.879,0,0,1,1.434.291l3.145,7.749a.883.883,0,0,0,.472.48l8.022,3.38a.878.878,0,0,1,.28,1.43L299.09,32a.879.879,0,0,1-.956.191" transform="translate(-171.341 -3.114)" fill="#b0e7c9"/>
      <path id="Path_278" data-name="Path 278" d="M46.781,279.482l-5.067,23.665a3.5,3.5,0,0,0,6.117,2.97l13.516-16.275,12.139-15.533L51.093,260.063Z" transform="translate(-25.028 -155.763)" fill="#c9bfc8"/>
      <path id="Path_279" data-name="Path 279" d="M217.571,294.364l13.516,16.275a3.5,3.5,0,0,0,6.119-2.97l-5.069-23.663L228.59,267.6l-21.824,14.2Z" transform="translate(-124.105 -160.285)" fill="#c9bfc8"/>
      <path id="Path_280" data-name="Path 280" d="M131.069,101.484A62.565,62.565,0,1,1,68.5,38.919a62.565,62.565,0,0,1,62.565,62.565" transform="translate(-3.61 -23.079)" fill="#22d4bf"/>
      <path id="Path_281" data-name="Path 281" d="M30.788,98.45A62.591,62.591,0,0,1,73.466,39.114q-2.456-.192-4.963-.2A62.565,62.565,0,1,0,88.385,160.825a62.57,62.57,0,0,1-57.6-62.375" transform="translate(-3.61 -23.079)" fill="#1cb2a1"/>
      <path id="Path_282" data-name="Path 282" d="M138.29,123.154A48.117,48.117,0,1,1,90.173,75.036a48.117,48.117,0,0,1,48.117,48.118" transform="translate(-25.28 -44.749)" fill="#ffde5d"/>
      <path id="Path_283" data-name="Path 283" d="M76.256,179.368A62.563,62.563,0,0,1,65.573,91.935a48.131,48.131,0,0,0,10.683,87.433" transform="translate(-25.28 -54.888)" fill="#fee97d"/>
      <path id="Path_284" data-name="Path 284" d="M146.047,146.425a32.6,32.6,0,1,1-9.55-23.055,32.6,32.6,0,0,1,9.55,23.055" transform="translate(-48.551 -68.019)" fill="#f847e3"/>
      <path id="Path_285" data-name="Path 285" d="M122.62,139.425a2.255,2.255,0,0,0-3.006,1.069A60.314,60.314,0,1,1,30.92,64.961a2.257,2.257,0,1,0-2.562-3.716,64.823,64.823,0,0,0-9.078,99.23c.075.076.153.148.23.225L14.7,183.147a5.759,5.759,0,0,0,10.061,4.885l12.364-14.888a65.045,65.045,0,0,0,55.965-.016l12.377,14.9a5.759,5.759,0,0,0,10.061-4.886l-4.806-22.44a64.842,64.842,0,0,0,12.967-18.274,2.256,2.256,0,0,0-1.07-3.006M21.29,185.148a1.244,1.244,0,0,1-.958.448,1.244,1.244,0,0,1-1.217-1.5l4.253-19.861A64.787,64.787,0,0,0,33.039,171Zm89.825-1.056a1.244,1.244,0,0,1-1.217,1.5,1.247,1.247,0,0,1-.958-.448L97.181,170.987q1.531-.872,3.017-1.831a65.1,65.1,0,0,0,6.664-4.927Z" transform="translate(-0.223 -36.235)"/>
      <path id="Path_286" data-name="Path 286" d="M129.487,149.38h-9.677a3.417,3.417,0,0,0-3.413,3.412v9.677a2.257,2.257,0,0,0,4.514,0v-8.575h8.575a2.257,2.257,0,0,0,0-4.514" transform="translate(-69.885 -89.354)"/>
      <path id="Path_287" data-name="Path 287" d="M129.487,213.742h-8.575v-8.573a2.257,2.257,0,1,0-4.514,0v9.677a3.415,3.415,0,0,0,3.413,3.411h9.675a2.257,2.257,0,1,0,0-4.514" transform="translate(-69.885 -121.473)"/>
    </g>
  </g>
  <g id="Group_78" data-name="Group 78" transform="translate(-0.148 -0.472)">
    <g id="Group_77" data-name="Group 77" transform="translate(0 0)" clip-path="url(#clip-path)">
      <path id="Path_288" data-name="Path 288" d="M183.019,202.911a2.257,2.257,0,0,0-2.256,2.258v8.573h-8.575a2.257,2.257,0,1,0,0,4.514h9.677a3.414,3.414,0,0,0,3.411-3.411v-9.677a2.257,2.257,0,0,0-2.256-2.258" transform="translate(-102.004 -121.473)"/>
      <path id="Path_289" data-name="Path 289" d="M147.826,30.892a3.123,3.123,0,0,0,3.416-.68l12.773-12.773a3.135,3.135,0,0,0-1-5.1l-7.494-3.158L152.59,1.957a3.133,3.133,0,0,0-5.12-1.038L134.708,13.68a3.124,3.124,0,0,0-.68,3.414l3.1,7.5L131,30.731A64.866,64.866,0,0,0,58.641,19.724,2.257,2.257,0,0,0,60.6,23.79a60.284,60.284,0,0,1,67.181,10.155l-7.025,7.025A50.349,50.349,0,0,0,36.414,78.133a51.185,51.185,0,0,0,.294,5.452A2.257,2.257,0,1,0,41.2,83.1a46.669,46.669,0,0,1-.269-4.969,45.838,45.838,0,0,1,76.639-33.971l-7.788,7.789a34.881,34.881,0,1,0,3.192,3.191l7.788-7.788a45.853,45.853,0,1,1-77.67,44.721,2.257,2.257,0,1,0-4.3,1.37A50.374,50.374,0,1,0,123.95,44.162l7.025-7.025a60.3,60.3,0,0,1,13.632,58.186,2.257,2.257,0,0,0,1.522,2.806,2.253,2.253,0,0,0,2.8-1.522A64.886,64.886,0,0,0,134.19,33.923l6.135-6.135Zm11.547-15.2L148.7,26.37l-4.922-2.036,10.7-10.7Zm-20.821.524L149.19,5.582,151.2,10.53,140.588,21.142ZM117.134,78.133a30.379,30.379,0,1,1-10.553-22.986l-4.616,4.617c-.07,0-.139-.011-.209-.011H92.079a2.257,2.257,0,1,0,0,4.514h5.383L85.191,76.536a2.257,2.257,0,0,0,3.192,3.192l12.269-12.27v5.385a2.257,2.257,0,0,0,4.514,0V63.166c0-.072-.006-.14-.011-.209l4.617-4.617a30.216,30.216,0,0,1,7.361,19.794" transform="translate(-21.896 0.272)"/>
    </g>
  </g>
</svg>
