<svg id="Digital_marketing_icon" data-name="Digital marketing icon" xmlns="http://www.w3.org/2000/svg" xmlns:xlink="http://www.w3.org/1999/xlink" width="132" height="153" viewBox="0 0 132 153">
  <defs>
    <clipPath id="clip-path">
      <rect id="Rectangle_53" data-name="Rectangle 53" width="132" height="153" transform="translate(-0.419)" fill="none"/>
    </clipPath>
  </defs>
  <g id="Group_88" data-name="Group 88" transform="translate(0.419)">
    <g id="Group_87" data-name="Group 87" clip-path="url(#clip-path)">
      <rect id="Rectangle_52" data-name="Rectangle 52" width="107.324" height="130.481" rx="8.543" transform="translate(11.929 11.561)" fill="#f7f6f7"/>
      <path id="Path_338" data-name="Path 338" d="M45.223,334.245l3.389,3.65H61.564l-6.241-10.419-10.1-1.05Z" transform="translate(-27.144 -195.853)" fill="#eeeced"/>
      <path id="Path_339" data-name="Path 339" d="M39.387,29.585a3.76,3.76,0,0,1,.063-.683H33.265a3.418,3.418,0,0,0-3.417,3.417V155.966a3.418,3.418,0,0,0,3.417,3.417h6.122Z" transform="translate(-17.919 -17.341)" fill="#eeeced"/>
      <path id="Path_340" data-name="Path 340" d="M143.894,56.254v66.459a2.452,2.452,0,0,1-2.452,2.452H65.913a2.453,2.453,0,0,1-2.452-2.452V56.254Z" transform="translate(-38.087 -33.752)" fill="#22d4bf"/>
      <path id="Path_341" data-name="Path 341" d="M143.894,118.195v4.518a2.45,2.45,0,0,1-2.452,2.45H65.913a2.451,2.451,0,0,1-2.452-2.45V56.254h8.325v56.679a5.563,5.563,0,0,0,5.586,5.561Z" transform="translate(-38.087 -33.752)" fill="#1db7a4"/>
      <path id="Path_342" data-name="Path 342" d="M126.351,82.4l7.8,13.722a.9.9,0,0,0,.606.441l15.458,3.174a.906.906,0,0,1,.488,1.5l-10.641,11.653a.915.915,0,0,0-.233.714l1.761,15.683a.907.907,0,0,1-1.277.926L125.937,123.7a.911.911,0,0,0-.75,0l-14.372,6.519a.907.907,0,0,1-1.277-.926l1.76-15.683a.908.908,0,0,0-.231-.714l-10.643-11.653a.907.907,0,0,1,.488-1.5l15.46-3.174a.9.9,0,0,0,.606-.441l7.8-13.722a.907.907,0,0,1,1.578,0" transform="translate(-60.122 -49.166)" fill="#fef0ae"/>
      <path id="Path_343" data-name="Path 343" d="M128.955,86.986l-2.6-4.581a.907.907,0,0,0-1.578,0l-7.794,13.722a.91.91,0,0,1-.608.441l-15.458,3.174a.906.906,0,0,0-.488,1.5l10.641,11.653a.915.915,0,0,1,.233.714l-1.76,15.683a.907.907,0,0,0,1.277.926l3.544-1.608,1.617-14.413a4.894,4.894,0,0,0-1.248-3.842l-3.8-4.331a2.62,2.62,0,0,1,1.442-4.294l7.253-1.489a4.668,4.668,0,0,0,3.122-2.274Z" transform="translate(-60.124 -49.166)" fill="#fee97d"/>
      <path id="Path_344" data-name="Path 344" d="M246.81,49.343,212.464,15a.548.548,0,0,1,.138-.874l5.267-2.7a.534.534,0,0,0,.238-.236l2.7-5.269a.545.545,0,0,1,.872-.136l34.346,34.346a.546.546,0,0,1-.138.872l-5.267,2.7a.55.55,0,0,0-.238.236l-2.7,5.269a.546.546,0,0,1-.872.136" transform="translate(-127.392 -3.375)" fill="#c8effe"/>
      <path id="Path_345" data-name="Path 345" d="M43.852,30.318s1.787,14.658,2.025,14.3,12.274-9.056,12.274-9.056l1.787-6.555-12.086-.1Z" transform="translate(-26.322 -17.341)" fill="#eeeced"/>
      <path id="Path_346" data-name="Path 346" d="M15.376,49.344,49.722,15a.547.547,0,0,0-.138-.874l-5.267-2.7a.55.55,0,0,1-.238-.236l-2.7-5.267a.545.545,0,0,0-.872-.138L6.163,40.133A.546.546,0,0,0,6.3,41l5.267,2.7a.529.529,0,0,1,.238.238l2.7,5.267a.546.546,0,0,0,.872.136" transform="translate(-3.613 -3.376)" fill="#c8effe"/>
      <path id="Path_347" data-name="Path 347" d="M246.81,268.841l-34.346,34.344a.548.548,0,0,0,.138.874l5.267,2.7a.534.534,0,0,1,.238.236l2.7,5.269a.545.545,0,0,0,.872.136l34.346-34.346a.546.546,0,0,0-.138-.872l-5.267-2.7a.55.55,0,0,1-.238-.236l-2.7-5.269a.546.546,0,0,0-.872-.136" transform="translate(-127.392 -161.206)" fill="#c8effe"/>
    </g>
  </g>
  <g id="Group_90" data-name="Group 90" transform="translate(0.419)">
    <g id="Group_89" data-name="Group 89" clip-path="url(#clip-path)">
      <path id="Path_348" data-name="Path 348" d="M15.376,268.841l34.346,34.346a.546.546,0,0,1-.138.872l-5.267,2.7a.55.55,0,0,0-.238.236l-2.7,5.269a.545.545,0,0,1-.872.136L6.163,278.052a.546.546,0,0,1,.138-.872l5.267-2.7a.534.534,0,0,0,.238-.236l2.7-5.269a.546.546,0,0,1,.872-.136" transform="translate(-3.613 -161.206)" fill="#c8effe"/>
      <path id="Path_349" data-name="Path 349" d="M129.757,113.972l-4.778-2.447-2.447-4.778a2.807,2.807,0,0,0-.792-.942V71.479a2.251,2.251,0,1,0-4.5,0v35.39L84.316,139.793H47.34L27.566,120.019a2.251,2.251,0,1,0-3.183,3.183L43.1,141.918l-3.186,1.631a2.782,2.782,0,0,0-1.212,1.214l-1.632,3.183L6.035,116.911l3.183-1.63a2.779,2.779,0,0,0,1.216-1.216l1.631-3.183,5.536,5.536a2.251,2.251,0,0,0,3.183-3.183l-6.366-6.367V46.736l8.944-8.944V88.962a4.706,4.706,0,0,0,4.7,4.7h75.53a4.707,4.707,0,0,0,4.7-4.7V37.792l8.944,8.944V61.885a2.251,2.251,0,1,0,4.5,0V47.8a2.779,2.779,0,0,0,.791-.94l2.448-4.778,4.778-2.448a2.8,2.8,0,0,0,.7-4.467l-8.719-8.719V14.979a5.675,5.675,0,0,0-5.667-5.669H104.605L96.114.819a2.8,2.8,0,0,0-4.467.7L89.2,6.3,84.422,8.748a2.8,2.8,0,0,0-.748.562H47.984a2.789,2.789,0,0,0-.748-.561L42.457,6.3,40.01,1.523a2.8,2.8,0,0,0-4.467-.7L27.051,9.31H15.583a5.675,5.675,0,0,0-5.667,5.669V26.446L1.2,35.165a2.8,2.8,0,0,0,.7,4.467l4.778,2.448,2.448,4.777a2.784,2.784,0,0,0,.791.942v58a2.8,2.8,0,0,0-.791.942l-2.448,4.778L1.9,113.972a2.8,2.8,0,0,0-.7,4.467l8.719,8.721v11.466a5.674,5.674,0,0,0,5.667,5.669H27.051l8.492,8.492a2.81,2.81,0,0,0,1.98.817,2.671,2.671,0,0,0,.433-.034,2.8,2.8,0,0,0,2.055-1.488l2.447-4.777,4.778-2.448a2.828,2.828,0,0,0,.748-.562h35.69a2.8,2.8,0,0,0,.747.562L89.2,147.3l2.448,4.778a2.8,2.8,0,0,0,2.055,1.489,2.843,2.843,0,0,0,.431.033,2.811,2.811,0,0,0,1.981-.819l8.491-8.491h11.467a5.674,5.674,0,0,0,5.667-5.669V127.158l8.719-8.717a2.8,2.8,0,0,0-.7-4.469m-25.965-25.01a.2.2,0,0,1-.2.2H28.063a.2.2,0,0,1-.2-.2V33.291L36.4,24.753H51.1a2.251,2.251,0,0,0,0-4.5H40.9l6.437-6.438H84.316l6.439,6.438H60.693a2.251,2.251,0,1,0,0,4.5H95.256l8.536,8.538Zm12.28-75.148a1.167,1.167,0,0,1,1.166,1.166v6.966l-8.131-8.131ZM91.747,10.054a2.79,2.79,0,0,0,1.208-1.211l1.632-3.184,31.035,31.035-3.183,1.632a2.773,2.773,0,0,0-1.216,1.214l-1.631,3.184L88.556,11.687Zm-77.33,4.925a1.167,1.167,0,0,1,1.166-1.166h6.966l-8.131,8.131Zm-5.2,23.346L6.036,36.693,37.069,5.659,38.7,8.842a2.792,2.792,0,0,0,1.214,1.216l3.184,1.63L24.024,30.764s0,0-.006.006L12.064,42.722l-1.631-3.181a2.766,2.766,0,0,0-1.214-1.216m6.365,101.468a1.168,1.168,0,0,1-1.166-1.167v-6.964l8.131,8.131Zm101.655-1.167a1.168,1.168,0,0,1-1.166,1.167h-6.966l8.131-8.133Zm-22.652,9.32-1.632-3.181a2.783,2.783,0,0,0-1.214-1.216l-3.184-1.631,31.035-31.035,1.631,3.183a2.77,2.77,0,0,0,1.214,1.214l3.184,1.632Z" transform="translate(-0.237 -0.001)"/>
    </g>
  </g>
  <g id="Group_92" data-name="Group 92" transform="translate(0.419)">
    <g id="Group_91" data-name="Group 91" clip-path="url(#clip-path)">
      <path id="Path_350" data-name="Path 350" d="M145.04,257.344a2.25,2.25,0,0,0-2.252-2.25H72.723a2.251,2.251,0,0,0,0,4.5h70.065a2.252,2.252,0,0,0,2.252-2.252" transform="translate(-42.294 -153.054)"/>
      <path id="Path_351" data-name="Path 351" d="M147.576,281.727a2.25,2.25,0,0,0-2.25-2.25H85.414a2.251,2.251,0,0,0,0,4.5h59.912a2.251,2.251,0,0,0,2.25-2.251" transform="translate(-49.909 -167.684)"/>
      <path id="Path_352" data-name="Path 352" d="M100.344,303.859a2.251,2.251,0,0,0,0,4.5h47.968a2.251,2.251,0,0,0,0-4.5Z" transform="translate(-58.866 -182.313)"/>
      <path id="Path_353" data-name="Path 353" d="M147.291,94.161l-14.861-3.05-7.494-13.193h0a3.157,3.157,0,0,0-5.491,0L111.95,91.111l-14.863,3.05a3.158,3.158,0,0,0-1.7,5.223l10.23,11.2-1.69,15.077a3.157,3.157,0,0,0,4.442,3.228l13.817-6.267L136,128.895a3.16,3.16,0,0,0,4.444-3.23l-1.692-15.077,10.231-11.2a3.159,3.159,0,0,0-1.7-5.223M135.022,108a3.156,3.156,0,0,0-.806,2.481l1.5,13.332-12.217-5.543a3.152,3.152,0,0,0-2.61,0l-12.217,5.543,1.5-13.333a3.166,3.166,0,0,0-.806-2.482L100.309,98.1l13.141-2.7a3.163,3.163,0,0,0,2.113-1.534L122.189,82.2l6.625,11.663a3.149,3.149,0,0,0,2.112,1.536l13.142,2.7Z" transform="translate(-56.749 -45.791)"/>
      <path id="Path_354" data-name="Path 354" d="M155.363,156.689a7.87,7.87,0,0,1-9.855,0,2.25,2.25,0,1,0-2.831,3.5,12.392,12.392,0,0,0,15.518,0,2.25,2.25,0,1,0-2.831-3.5" transform="translate(-85.115 -93.712)"/>
      <path id="Path_355" data-name="Path 355" d="M147.787,135.035a2.25,2.25,0,0,0,2.25-2.251V131.6a2.251,2.251,0,1,0-4.5,0v1.184a2.251,2.251,0,0,0,2.252,2.251" transform="translate(-87.331 -77.608)"/>
      <path id="Path_356" data-name="Path 356" d="M172.711,135.035a2.251,2.251,0,0,0,2.252-2.251V131.6a2.251,2.251,0,1,0-4.5,0v1.184a2.251,2.251,0,0,0,2.25,2.251" transform="translate(-102.286 -77.608)"/>
    </g>
  </g>
</svg>
