<svg id="Copywrighting_icon" data-name="Copywrighting icon" xmlns="http://www.w3.org/2000/svg" xmlns:xlink="http://www.w3.org/1999/xlink" width="126.496" height="153.603" viewBox="0 0 126.496 153.603">
  <defs>
    <clipPath id="clip-path">
      <rect id="Rectangle_51" data-name="Rectangle 51" width="126.496" height="153.603" fill="none"/>
    </clipPath>
  </defs>
  <g id="Group_85" data-name="Group 85" clip-path="url(#clip-path)">
    <path id="Path_319" data-name="Path 319" d="M274.011,156.051h-7.285v20.63h7.285a10.271,10.271,0,0,0,10.271-10.271v-.089a10.271,10.271,0,0,0-10.271-10.271" transform="translate(-160.033 -93.629)" fill="#ffde5d"/>
    <path id="Path_320" data-name="Path 320" d="M101.263,36.068V23.211A17.586,17.586,0,0,0,83.677,5.625H23.207A17.586,17.586,0,0,0,5.621,23.211v113.93a17.587,17.587,0,0,0,17.586,17.586h60.47a17.586,17.586,0,0,0,17.586-17.586V116.155" transform="translate(-3.373 -3.375)" fill="#c9bfc8"/>
    <path id="Path_321" data-name="Path 321" d="M24.223,139.962V19.4A19.06,19.06,0,0,1,29.987,5.625h-6.78A17.586,17.586,0,0,0,5.621,23.211v113.93a17.587,17.587,0,0,0,17.586,17.586h7.9a18.965,18.965,0,0,1-6.889-14.766" transform="translate(-3.373 -3.375)" fill="#baafb9"/>
    <path id="Path_322" data-name="Path 322" d="M105.762,150.639a8.588,8.588,0,0,1-8.587,8.588H36.7a8.588,8.588,0,0,1-8.588-8.588V36.709A8.588,8.588,0,0,1,36.7,28.121h6.221a2.537,2.537,0,0,1,2.311,1.491l.892,1.973a5.2,5.2,0,0,0,4.735,3.056H82.717a5.2,5.2,0,0,0,4.734-3.056l.894-1.973a2.536,2.536,0,0,1,2.311-1.491h6.519a8.588,8.588,0,0,1,8.587,8.588Z" transform="translate(-16.87 -16.872)" fill="#c8effe"/>
    <path id="Path_323" data-name="Path 323" d="M37.72,153.46V32.9a19.613,19.613,0,0,1,.589-4.778H36.7a8.588,8.588,0,0,0-8.588,8.588v113.93a8.588,8.588,0,0,0,8.588,8.588h1.884a19.565,19.565,0,0,1-.869-5.767" transform="translate(-16.87 -16.872)" fill="#99e6fc"/>
    <path id="Path_324" data-name="Path 324" d="M142.674,212.368l3.57,12.728a1.262,1.262,0,0,1-.708,1.506,11.537,11.537,0,0,1-10.572-.467l-9.792-6.411,7.7-19.728h6.1Z" transform="translate(-75.102 -119.996)" fill="#c9bfc8"/>
    <path id="Path_325" data-name="Path 325" d="M130.938,209.89v10.741a3.2,3.2,0,0,1-3.2,3.194h-6.086a3.2,3.2,0,0,1-3.2-3.194V175.484H149.49Z" transform="translate(-71.076 -105.289)" fill="#d7d0d6"/>
    <path id="Path_326" data-name="Path 326" d="M178.121,95.278l-20.14,11.014L128.662,111.1l-5.959,6.339v17.872l5.959,10.952,29.319,4.806,20.14,11.016,3.969,1.526V93.242Z" transform="translate(-73.621 -55.944)" fill="#f7f6f7"/>
    <path id="Path_327" data-name="Path 327" d="M182.591,95.278l-20.14,11.014-30.585,5.014-1.714,3.175,2.98,4.133,28.845-4.73a10.164,10.164,0,0,0,3.23-1.111l19.971-10.922,1.383-.71v-7.9Z" transform="translate(-78.09 -55.944)" fill="#eeeced"/>
    <path id="Path_328" data-name="Path 328" d="M250.243,93.242v70.37l-3.969-1.526-9.98-5.458,0-55.89,9.981-5.459Z" transform="translate(-141.774 -55.944)" fill="#eeeced"/>
    <path id="Path_329" data-name="Path 329" d="M245.579,95.659l-9.286,5.078v7.988l12.567-6.873,1.383-.71v-7.9l-3.969,2.036Z" transform="translate(-141.774 -55.944)" fill="#d7d0d6"/>
    <path id="Path_330" data-name="Path 330" d="M115.292,137.887V173.05l-7.656-1.255a8.613,8.613,0,0,1-7.217-8.5v-15.65a8.613,8.613,0,0,1,7.217-8.5Z" transform="translate(-60.25 -82.731)" fill="#8a63ff"/>
    <path id="Path_331" data-name="Path 331" d="M264.811,163.36h2.352a3.563,3.563,0,0,0,3.563-3.562V92.991a3.561,3.561,0,0,0-3.562-3.561h-2.352a3.56,3.56,0,0,0-3.561,3.561V159.8a3.561,3.561,0,0,0,3.561,3.562" transform="translate(-156.748 -53.657)" fill="#8a63ff"/>
    <path id="Path_332" data-name="Path 332" d="M115.292,145.4v-7.514l-7.656,1.254a8.613,8.613,0,0,0-7.217,8.5v2.922a9.178,9.178,0,0,1,5.972-3.7Z" transform="translate(-60.25 -82.731)" fill="#6a3bf6"/>
    <path id="Path_333" data-name="Path 333" d="M97.891,110.53a2.251,2.251,0,0,0-2.25,2.25v20.986A15.353,15.353,0,0,1,80.3,149.1H19.835A15.354,15.354,0,0,1,4.5,133.767V19.836A15.354,15.354,0,0,1,19.835,4.5h10.43a2.25,2.25,0,1,0,0-4.5H19.835A19.859,19.859,0,0,0,0,19.836v113.93A19.859,19.859,0,0,0,19.835,153.6H80.3a19.859,19.859,0,0,0,19.836-19.836V112.78a2.251,2.251,0,0,0-2.25-2.25"/>
    <path id="Path_334" data-name="Path 334" d="M96.254,4.5h40.452a15.353,15.353,0,0,1,15.336,15.336V32.693a2.25,2.25,0,0,0,4.5,0V19.836A19.859,19.859,0,0,0,136.706,0H96.254a2.25,2.25,0,0,0,0,4.5" transform="translate(-56.402)"/>
    <path id="Path_335" data-name="Path 335" d="M24.744,273.55A2.249,2.249,0,0,0,22.5,275.8v16.377a10.85,10.85,0,0,0,10.836,10.838H93.8a10.851,10.851,0,0,0,10.837-10.838V266.27a2.25,2.25,0,1,0-4.5,0v25.907a6.344,6.344,0,0,1-6.337,6.338H33.332a6.345,6.345,0,0,1-6.338-6.338V275.8a2.25,2.25,0,0,0-2.25-2.25" transform="translate(-13.497 -158.41)"/>
    <path id="Path_336" data-name="Path 336" d="M44.806,27.284l-.894-1.974A4.8,4.8,0,0,0,39.553,22.5H33.332A10.85,10.85,0,0,0,22.5,33.334V121.3a2.249,2.249,0,0,0,4.5,0V33.334A6.345,6.345,0,0,1,33.332,27h6.221a.286.286,0,0,1,.261.169l.892,1.972a7.461,7.461,0,0,0,6.786,4.378H79.344a7.46,7.46,0,0,0,6.786-4.378l.892-1.972A.285.285,0,0,1,87.283,27H93.8a6.344,6.344,0,0,1,6.337,6.338V51.112a2.25,2.25,0,0,0,4.5,0V33.334A10.851,10.851,0,0,0,93.8,22.5H87.283a4.8,4.8,0,0,0-4.361,2.814l-.892,1.974a2.953,2.953,0,0,1-2.686,1.733H47.49a2.95,2.95,0,0,1-2.684-1.733" transform="translate(-13.497 -13.497)"/>
    <path id="Path_337" data-name="Path 337" d="M173.1,110.662V89.616a5.818,5.818,0,0,0-5.813-5.811h-2.352a5.814,5.814,0,0,0-5.623,4.375L140.494,98.473l-36.6,6a10.823,10.823,0,0,0-9.1,10.719v15.655a10.818,10.818,0,0,0,7.219,10.236v24.541a5.45,5.45,0,0,0,5.444,5.444h6.086a5.45,5.45,0,0,0,5.444-5.444v-5.883a13.172,13.172,0,0,0,3.43.461,14.645,14.645,0,0,0,5.777-1.244,3.523,3.523,0,0,0,1.992-4.184l-2.617-9.329,12.927,2.12,18.821,10.293a5.814,5.814,0,0,0,5.623,4.375h2.352a5.818,5.818,0,0,0,5.813-5.811V135.376a12.536,12.536,0,0,0,10.269-12.313v-.089A12.537,12.537,0,0,0,173.1,110.662M99.291,130.846V115.192a6.34,6.34,0,0,1,5.335-6.279l5.036-.826v29.865l-5.036-.826a6.34,6.34,0,0,1-5.335-6.279M114.67,154a2.254,2.254,0,0,0-.183.888v10.741a.945.945,0,0,1-.945.944h-6.086a.945.945,0,0,1-.945-.944v-23.63l12.439,2.041Zm4.442,1.056,3.919-9.117,2.581,9.2a9.1,9.1,0,0,1-6.5-.083M141.6,143.187l-27.438-4.5v-31.34l27.438-4.5a2.257,2.257,0,0,0,.716-.245l6.824-3.733v26.346a2.249,2.249,0,1,0,4.5,0V96.413l5.489-3v59.217l-5.489-3v-14.82a2.249,2.249,0,1,0-4.5,0v12.359l-6.824-3.731a2.24,2.24,0,0,0-.716-.247m27,13.235a1.314,1.314,0,0,1-1.312,1.312h-2.352a1.315,1.315,0,0,1-1.312-1.312V89.616a1.314,1.314,0,0,1,1.312-1.312h2.352a1.314,1.314,0,0,1,1.312,1.312Zm10.271-33.359a8.036,8.036,0,0,1-5.771,7.7V115.276a8.034,8.034,0,0,1,5.771,7.7Z" transform="translate(-56.875 -50.282)"/>
  </g>
</svg>
