<svg id="Component_60_1" data-name="Component 60 – 1" xmlns="http://www.w3.org/2000/svg" xmlns:xlink="http://www.w3.org/1999/xlink" width="153.603" height="147.062" viewBox="0 0 153.603 147.062">
  <defs>
    <clipPath id="clip-path">
      <rect id="Rectangle_56" data-name="Rectangle 56" width="153.603" height="147.062" fill="none"/>
    </clipPath>
  </defs>
  <path id="Path_357" data-name="Path 357" d="M144.477,253.711v26.954l1.828,6.211h32.027l4.46-6.211V253.711Z" transform="translate(-86.685 -152.224)" fill="#d7d0d6"/>
  <g id="Group_95" data-name="Group 95">
    <g id="Group_94" data-name="Group 94" clip-path="url(#clip-path)">
      <path id="Path_358" data-name="Path 358" d="M142.66,5.617H17.679A12.064,12.064,0,0,0,5.613,17.681v79.7l10.252,10.867H143.341l11.383-10.867v-79.7A12.063,12.063,0,0,0,142.66,5.617" transform="translate(-3.368 -3.37)" fill="#def6fc"/>
      <path id="Path_359" data-name="Path 359" d="M18.824,99.207V12.972a11.091,11.091,0,0,1,2.814-7.355h-3.96A12.064,12.064,0,0,0,5.613,17.681v79.7l10.252,10.867h7.614a11.3,11.3,0,0,1-4.654-9.047" transform="translate(-3.368 -3.37)" fill="#c8effe"/>
      <path id="Path_360" data-name="Path 360" d="M159.233,275.108h23.558v-21.4H144.477v26.954l1.828,6.211h8.5v-7.338a4.429,4.429,0,0,1,4.43-4.43" transform="translate(-86.685 -152.224)" fill="#c9bfc8"/>
      <path id="Path_361" data-name="Path 361" d="M154.724,235.035v10.214a12.063,12.063,0,0,1-12.064,12.064H17.679A12.064,12.064,0,0,1,5.613,245.249V235.035Z" transform="translate(-3.368 -141.019)" fill="#e5e1e5"/>
      <path id="Path_362" data-name="Path 362" d="M18.809,245.249V235.035H5.613v10.214a12.064,12.064,0,0,0,12.066,12.064h13.2a12.063,12.063,0,0,1-12.066-12.064" transform="translate(-3.368 -141.019)" fill="#d7d0d6"/>
      <path id="Path_363" data-name="Path 363" d="M178.5,333.872a2.382,2.382,0,0,1-2.052,3.6H127.094a2.383,2.383,0,0,1-2.052-3.6l7.572-12.778H170.93Z" transform="translate(-74.823 -192.654)" fill="#e5e1e5"/>
      <path id="Path_364" data-name="Path 364" d="M135.369,333.872l7.572-12.778H132.615l-7.572,12.778a2.383,2.383,0,0,0,2.052,3.6h10.328a2.383,2.383,0,0,1-2.053-3.6" transform="translate(-74.823 -192.654)" fill="#d7d0d6"/>
      <path id="Path_365" data-name="Path 365" d="M159.169,39.633H67.336A6.586,6.586,0,0,0,60.75,46.22v9.108l8.375,9.616h92.5l4.13-9.616V46.22a6.585,6.585,0,0,0-6.583-6.587" transform="translate(-36.449 -23.779)" fill="#22d4bf"/>
      <path id="Path_366" data-name="Path 366" d="M67.867,54.86V45.5a6.8,6.8,0,0,1,3.3-5.866H67.336A6.586,6.586,0,0,0,60.75,46.22v9.108L67.867,63.5Z" transform="translate(-36.449 -23.779)" fill="#15ab99"/>
      <path id="Path_367" data-name="Path 367" d="M165.752,78.871V123.82a6.583,6.583,0,0,1-6.583,6.586H67.336a6.584,6.584,0,0,1-6.586-6.586V78.871Z" transform="translate(-36.449 -47.322)" fill="#f7f6f7"/>
      <path id="Path_368" data-name="Path 368" d="M67.867,124.6V78.871H60.75V123.82a6.584,6.584,0,0,0,6.586,6.586h3.733a6.805,6.805,0,0,1-3.2-5.808" transform="translate(-36.449 -47.322)" fill="#eeeced"/>
      <path id="Path_369" data-name="Path 369" d="M188.717,262.91a2.246,2.246,0,1,0,0-4.492h-3.411a2.246,2.246,0,1,0,0,4.492Z" transform="translate(-109.834 -155.049)"/>
      <path id="Path_370" data-name="Path 370" d="M87.159,53.344a2.246,2.246,0,0,0,0,4.492h1.289a2.246,2.246,0,0,0,0-4.492Z" transform="translate(-50.948 -32.006)"/>
      <path id="Path_371" data-name="Path 371" d="M113.727,53.344a2.246,2.246,0,1,0,0,4.492h1.289a2.246,2.246,0,0,0,0-4.492Z" transform="translate(-66.887 -32.006)"/>
      <path id="Path_372" data-name="Path 372" d="M140.3,53.344a2.246,2.246,0,1,0,0,4.492h1.288a2.246,2.246,0,1,0,0-4.492Z" transform="translate(-82.829 -32.006)"/>
      <path id="Path_373" data-name="Path 373" d="M88.77,112.355h3.612a2.246,2.246,0,0,0,0-4.492H88.77a2.246,2.246,0,1,0,0,4.492" transform="translate(-51.913 -64.717)"/>
      <path id="Path_374" data-name="Path 374" d="M118.417,112.355H179a2.246,2.246,0,1,0,0-4.492H118.417a2.246,2.246,0,0,0,0,4.492" transform="translate(-69.702 -64.717)"/>
      <path id="Path_375" data-name="Path 375" d="M88.77,139.844h33a2.246,2.246,0,1,0,0-4.493h-33a2.246,2.246,0,1,0,0,4.493" transform="translate(-51.913 -81.209)"/>
      <path id="Path_376" data-name="Path 376" d="M98.384,162.836H89.609a2.246,2.246,0,0,0,0,4.492h8.775a2.246,2.246,0,1,0,0-4.492" transform="translate(-52.417 -97.7)"/>
      <path id="Path_377" data-name="Path 377" d="M203.625,135.351H192.419a2.246,2.246,0,1,0,0,4.493h11.207a2.246,2.246,0,0,0,0-4.493" transform="translate(-114.102 -81.209)"/>
      <path id="Path_378" data-name="Path 378" d="M164.563,162.836h-32.14a2.246,2.246,0,1,0,0,4.492h32.14a2.246,2.246,0,0,0,0-4.492" transform="translate(-78.105 -97.7)"/>
      <path id="Path_379" data-name="Path 379" d="M142.349,36.266a2.246,2.246,0,0,0-2.245-2.247H63.964a8.842,8.842,0,0,0-8.831,8.833V96.91a8.841,8.841,0,0,0,8.831,8.831H155.8a8.84,8.84,0,0,0,8.831-8.831V42.852a8.843,8.843,0,0,0-8.831-8.833h-6.121a2.247,2.247,0,0,0,0,4.494H155.8a4.344,4.344,0,0,1,4.339,4.339v6.861H59.625V42.852a4.344,4.344,0,0,1,4.339-4.339H140.1a2.246,2.246,0,0,0,2.245-2.247m17.788,17.94v42.7a4.345,4.345,0,0,1-4.339,4.339H63.964a4.345,4.345,0,0,1-4.339-4.339v-42.7Z" transform="translate(-33.079 -20.411)"/>
      <path id="Path_380" data-name="Path 380" d="M151.356,67.862a2.246,2.246,0,0,0,2.247-2.247v-51.3A14.328,14.328,0,0,0,139.292,0H14.311A14.328,14.328,0,0,0,0,14.311V104.23a14.328,14.328,0,0,0,14.311,14.311H55.545v9.283l-7.256,12.249a4.628,4.628,0,0,0,3.983,6.989h49.355a4.629,4.629,0,0,0,3.983-6.989l-7.257-12.249v-9.283h40.938A14.328,14.328,0,0,0,153.6,104.23V75.189a2.247,2.247,0,0,0-4.494,0V91.772H25.959a2.246,2.246,0,1,0,0,4.492H149.111v7.966a9.829,9.829,0,0,1-9.819,9.817H14.311a9.829,9.829,0,0,1-9.819-9.817V96.264H16.385a2.246,2.246,0,1,0,0-4.492H4.492V14.311a9.83,9.83,0,0,1,9.819-9.819H139.292a9.829,9.829,0,0,1,9.817,9.819v51.3a2.248,2.248,0,0,0,2.247,2.247m-49.611,74.5a.117.117,0,0,1,0,.138.119.119,0,0,1-.12.069H52.271a.136.136,0,0,1-.117-.206l6.917-11.677H94.828Zm-7.885-16.171H60.037v-7.652H93.861Z"/>
    </g>
  </g>
</svg>
