<svg id="Component_58_1" data-name="Component 58 – 1" xmlns="http://www.w3.org/2000/svg" xmlns:xlink="http://www.w3.org/1999/xlink" width="153.603" height="153.462" viewBox="0 0 153.603 153.462">
  <defs>
    <clipPath id="clip-path">
      <rect id="Rectangle_57" data-name="Rectangle 57" width="153.603" height="153.462" fill="none"/>
    </clipPath>
  </defs>
  <g id="Group_97" data-name="Group 97" clip-path="url(#clip-path)">
    <path id="Path_381" data-name="Path 381" d="M173.789,151.418a4.318,4.318,0,0,1,.014,4.1L159.1,183.07v13.9H118.765v-13.9l-14.7-27.555a4.323,4.323,0,0,1,.014-4.1l26.335-48.391a.509.509,0,0,1,.441-.261h3.206a.5.5,0,0,1,.5.5v39.562a10.586,10.586,0,1,0,8.741,0V103.267a.5.5,0,0,1,.5-.5h3.2a.507.507,0,0,1,.441.261Z" transform="translate(-62.132 -61.658)" fill="#f7f6f7"/>
    <path id="Path_382" data-name="Path 382" d="M138.617,183.1a12.36,12.36,0,0,1-10.849-6.542L116.54,155.514a4.322,4.322,0,0,1,.014-4.1l18.008-33.089V103.267a.5.5,0,0,0-.5-.5h-3.2a.507.507,0,0,0-.441.261l-26.335,48.391a4.318,4.318,0,0,0-.014,4.1l14.7,27.555v13.9H159.1V183.2Z" transform="translate(-62.131 -61.658)" fill="#eeeced"/>
    <path id="Path_383" data-name="Path 383" d="M145.632,348.544H177.7a4.19,4.19,0,0,0,4.189-4.189V328.894H141.441v15.462a4.19,4.19,0,0,0,4.191,4.189" transform="translate(-84.863 -197.334)" fill="#baafb9"/>
    <path id="Path_384" data-name="Path 384" d="M151.389,344.356V328.894h-9.944v15.462a4.19,4.19,0,0,0,4.189,4.19h9.944a4.19,4.19,0,0,1-4.189-4.19" transform="translate(-84.866 -197.334)" fill="#9b8e99"/>
    <path id="Path_385" data-name="Path 385" d="M177.872,318H137.424a2.678,2.678,0,0,0-2.678,2.678v7.092a2.679,2.679,0,0,0,2.678,2.678h40.448a2.679,2.679,0,0,0,2.678-2.678v-7.092A2.678,2.678,0,0,0,177.872,318" transform="translate(-80.846 -190.8)" fill="#c9bfc8"/>
    <path id="Path_386" data-name="Path 386" d="M144.691,327.774v-7.092A2.677,2.677,0,0,1,147.37,318h-9.944a2.679,2.679,0,0,0-2.68,2.678v7.092a2.68,2.68,0,0,0,2.68,2.678h9.944a2.679,2.679,0,0,1-2.678-2.678" transform="translate(-80.846 -190.8)" fill="#baafb9"/>
    <path id="Path_387" data-name="Path 387" d="M346.134,25.216H332.251a2.853,2.853,0,0,1-2.853-2.853V8.48a2.854,2.854,0,0,1,2.853-2.855h13.883a2.855,2.855,0,0,1,2.855,2.855V22.363a2.855,2.855,0,0,1-2.855,2.853" transform="translate(-197.636 -3.375)" fill="#f847e3"/>
    <path id="Path_388" data-name="Path 388" d="M8.482,25.216H22.365a2.853,2.853,0,0,0,2.854-2.853V8.48a2.855,2.855,0,0,0-2.854-2.855H8.482A2.854,2.854,0,0,0,5.629,8.48V22.363a2.853,2.853,0,0,0,2.853,2.853" transform="translate(-3.377 -3.375)" fill="#f847e3"/>
    <path id="Path_389" data-name="Path 389" d="M27.192,210.383h-8.4a2.268,2.268,0,0,0-2.267,2.268v8.4a2.268,2.268,0,0,0,2.267,2.267h8.4a2.267,2.267,0,0,0,2.267-2.267v-8.4a2.266,2.266,0,0,0-2.266-2.268" transform="translate(-9.912 -126.228)" fill="#22d4bf"/>
    <path id="Path_390" data-name="Path 390" d="M345.807,210.383h-8.4a2.267,2.267,0,0,0-2.267,2.268v8.4a2.267,2.267,0,0,0,2.267,2.267h8.4a2.268,2.268,0,0,0,2.267-2.267v-8.4a2.268,2.268,0,0,0-2.267-2.268" transform="translate(-201.079 -126.228)" fill="#22d4bf"/>
    <path id="Path_391" data-name="Path 391" d="M187.7,17.225a8.592,8.592,0,1,1-8.592-8.592,8.593,8.593,0,0,1,8.592,8.592" transform="translate(-102.311 -5.18)" fill="#22d4bf"/>
    <path id="Path_392" data-name="Path 392" d="M148.5,0H134.615a5.111,5.111,0,0,0-5.1,5.1V9.8h-42.1a10.843,10.843,0,0,0-21.213,0h-42.1V5.1a5.111,5.111,0,0,0-5.1-5.1H5.1A5.111,5.111,0,0,0,0,5.1V18.988a5.111,5.111,0,0,0,5.1,5.1H18.988a5.111,5.111,0,0,0,5.1-5.1V14.3H52.837A66,66,0,0,0,10.827,75.77V81.9H8.875a4.523,4.523,0,0,0-4.519,4.518v8.4a4.523,4.523,0,0,0,4.519,4.519h8.4A4.523,4.523,0,0,0,21.8,94.827v-8.4A4.523,4.523,0,0,0,17.278,81.9h-1.95V75.77A61.48,61.48,0,0,1,66.422,15.178a10.842,10.842,0,0,0,20.76,0,61.476,61.476,0,0,1,51.093,60.59V81.9h-1.95a4.523,4.523,0,0,0-4.519,4.518v8.4a4.523,4.523,0,0,0,4.519,4.519h8.4a4.523,4.523,0,0,0,4.519-4.519v-8.4a4.523,4.523,0,0,0-4.519-4.518h-1.951V75.77A66,66,0,0,0,100.769,14.3h28.741v4.691a5.111,5.111,0,0,0,5.1,5.1H148.5a5.11,5.11,0,0,0,5.1-5.1V5.1A5.11,5.11,0,0,0,148.5,0M19.591,18.988a.6.6,0,0,1-.6.6H5.1a.6.6,0,0,1-.6-.6V5.1a.6.6,0,0,1,.6-.6H18.988a.6.6,0,0,1,.6.6ZM17.3,86.423l-.017,8.421-8.42-.017.017-8.42h8.4ZM76.8,18.388a6.342,6.342,0,1,1,6.341-6.343A6.349,6.349,0,0,1,76.8,18.388m67.942,68.035-.016,8.421-8.42-.017.017-8.42h8.4ZM149.1,18.988a.6.6,0,0,1-.6.6H134.615a.6.6,0,0,1-.6-.6V5.1a.6.6,0,0,1,.6-.6H148.5a.6.6,0,0,1,.6.6Z"/>
    <path id="Path_393" data-name="Path 393" d="M102.669,151.08a2.063,2.063,0,0,1,.008-1.961l25.836-47.478h.419V138.1a12.837,12.837,0,1,0,13.244,0V101.642h.419l12.211,22.441a2.251,2.251,0,1,0,3.955-2.152L146.053,98.579a2.748,2.748,0,0,0-2.419-1.439h-3.206a2.755,2.755,0,0,0-2.753,2.753v39.559a2.248,2.248,0,0,0,1.32,2.05,8.337,8.337,0,1,1-6.88,0,2.252,2.252,0,0,0,1.32-2.05V99.893a2.757,2.757,0,0,0-2.753-2.753h-3.208a2.752,2.752,0,0,0-2.417,1.436L98.724,146.968A6.553,6.553,0,0,0,98.7,153.2l4.2,7.878a2.252,2.252,0,0,0,3.974-2.119Z" transform="translate(-58.752 -58.283)"/>
    <path id="Path_394" data-name="Path 394" d="M177.213,178.515a2.251,2.251,0,0,0-3.954,2.153l9.019,16.571a2.063,2.063,0,0,1,.008,1.961l-14.7,27.557a2.244,2.244,0,0,0-.266,1.059v3.539h-7.239a2.251,2.251,0,0,0,0,4.5h9.546a.427.427,0,0,1,.426.428v7.092a.427.427,0,0,1-.426.427H129.176a.427.427,0,0,1-.426-.427v-7.092a.427.427,0,0,1,.426-.428h21.31a2.251,2.251,0,0,0,0-4.5h-19v-3.539a2.244,2.244,0,0,0-.266-1.059l-5.98-11.21a2.251,2.251,0,0,0-3.972,2.119l5.716,10.713v3.5a4.933,4.933,0,0,0-2.734,4.408v7.092a4.93,4.93,0,0,0,2.68,4.38v9.856a2.251,2.251,0,1,0,4.5,0v-9.306h35.945v9.308a2.251,2.251,0,0,0,4.5,0v-9.858a4.93,4.93,0,0,0,2.68-4.38v-7.092a4.932,4.932,0,0,0-2.734-4.406v-3.5l14.438-27.061a6.548,6.548,0,0,0-.025-6.231Z" transform="translate(-72.599 -106.403)"/>
  </g>
</svg>
