<svg id="Group_109" data-name="Group 109" xmlns="http://www.w3.org/2000/svg" width="43.899" height="31.552" viewBox="0 0 43.899 31.552">
  <path id="Path_400" data-name="Path 400" d="M38.411,3.5H5.487A5.493,5.493,0,0,0,0,8.987V29.565a5.493,5.493,0,0,0,5.487,5.487H38.411A5.493,5.493,0,0,0,43.9,29.565V8.987A5.493,5.493,0,0,0,38.411,3.5m2.744,26.065a2.746,2.746,0,0,1-2.744,2.744H5.487a2.746,2.746,0,0,1-2.744-2.744V8.987A2.746,2.746,0,0,1,5.487,6.244H38.411a2.746,2.746,0,0,1,2.744,2.744Z" transform="translate(0 -3.5)" fill="#8a63ff"/>
  <path id="Path_401" data-name="Path 401" d="M36.614,9a1.372,1.372,0,0,0-1.93-.193L20.462,20.446,6.24,8.81A1.372,1.372,0,0,0,4.5,10.934L19.594,23.28a1.371,1.371,0,0,0,1.737,0L36.42,10.934A1.37,1.37,0,0,0,36.614,9" transform="translate(1.488 -1.641)" fill="#8a63ff"/>
  <path id="Path_402" data-name="Path 402" d="M24.342,16.9a1.372,1.372,0,0,0-1.94,1.94l5.487,5.487a1.372,1.372,0,0,0,1.94-1.94Z" transform="translate(8.18 1.334)" fill="#8a63ff"/>
  <path id="Path_403" data-name="Path 403" d="M9.889,16.9,4.4,22.389a1.372,1.372,0,1,0,1.94,1.94l5.487-5.487a1.372,1.372,0,0,0-1.94-1.94" transform="translate(1.487 1.334)" fill="#8a63ff"/>
</svg>
