<svg xmlns="http://www.w3.org/2000/svg" width="29.129" height="20.69" viewBox="0 0 29.129 20.69">
  <g id="Component_53_1" data-name="Component 53 – 1" transform="translate(0.5 0.5)">
    <path id="Subtraction_1" data-name="Subtraction 1" d="M-2603.067,19.69H-2620.8A5.2,5.2,0,0,1-2626,14.5v-9.3A5.2,5.2,0,0,1-2620.8,0h17.737a5.2,5.2,0,0,1,5.2,5.195v9.3A5.2,5.2,0,0,1-2603.067,19.69ZM-2615.04,5.949a.412.412,0,0,0-.412.412v7.154a.412.412,0,0,0,.411.412.405.405,0,0,0,.185-.045l7.091-3.577a.4.4,0,0,0,.226-.367.4.4,0,0,0-.226-.367l-7.091-3.578A.407.407,0,0,0-2615.04,5.949Z" transform="translate(2626)" fill="#f9f9f9" stroke="rgba(0,0,0,0)" stroke-miterlimit="10" stroke-width="1"/>
  </g>
</svg>
