<svg id="Component_71_1" data-name="Component 71 – 1" xmlns="http://www.w3.org/2000/svg" width="26.32" height="26.32" viewBox="0 0 26.32 26.32">
  <path id="Path_99" data-name="Path 99" d="M13.16,5.58a7.58,7.58,0,1,0,7.58,7.58A7.588,7.588,0,0,0,13.16,5.58Zm0,13.1a5.525,5.525,0,1,1,5.52-5.53A5.535,5.535,0,0,1,13.16,18.68Z" fill="#f9f9f9"/>
  <path id="Path_100" data-name="Path 100" d="M20.88,4.14a1.05,1.05,0,1,0,1.05,1.05,1.05,1.05,0,0,0-1.05-1.05Z" fill="#f9f9f9"/>
  <path id="Path_101" data-name="Path 101" d="M24.6,1.72A5.755,5.755,0,0,0,20.48,0H5.83A5.838,5.838,0,0,0,0,5.83V20.48a5.855,5.855,0,0,0,5.83,5.84H20.48a5.873,5.873,0,0,0,5.84-5.84V5.83a5.787,5.787,0,0,0-1.71-4.12Zm-.34,18.77a3.773,3.773,0,0,1-3.77,3.78H5.83A3.773,3.773,0,0,1,2.05,20.5V5.83A3.773,3.773,0,0,1,5.82,2.05H20.47a3.773,3.773,0,0,1,3.78,3.77V20.47Z" fill="#f9f9f9"/>
</svg>
