<svg id="path74" xmlns="http://www.w3.org/2000/svg" width="30.25" height="22.808" viewBox="0 0 30.25 22.808">
  <path id="Path_84" data-name="Path 84" d="M15.46,7.52a7.9,7.9,0,0,1,.21-2.12A5.69,5.69,0,0,1,19.9,1.41a6.308,6.308,0,0,1,3.99.41,7.188,7.188,0,0,1,2.09,1.8,7.506,7.506,0,0,0,2.89-.5c.3-.11.61-.23.91-.34a.41.41,0,0,1-.01.11A6.258,6.258,0,0,1,26.9,5.6a12.563,12.563,0,0,0,2.5-.23,4.489,4.489,0,0,1,.84-.21v.03a8.853,8.853,0,0,1-3.25,2.55,17.448,17.448,0,0,1-1.91,6.28,15.9,15.9,0,0,1-7.97,7.5,23.057,23.057,0,0,1-4.14,1.12c-3.26.68-8.55-.7-10.75-2.24-.51-.36-2.05-1.11-2.23-1.61.13.02.27.04.4.05a8.753,8.753,0,0,0,2.4.33,12.593,12.593,0,0,0,5.92-1.59v-.03c-2.27-.12-4.78-2.82-4.77-4.69a1.517,1.517,0,0,1,.21.03,4.082,4.082,0,0,0,2.33.21,2.981,2.981,0,0,1-1.07-.53A5.5,5.5,0,0,1,2.72,6.8c.5.21,1.69,1.18,2.44,1.01a.22.22,0,0,1-.08-.01c-.3-.36-.61-.72-.91-1.07a6.024,6.024,0,0,1-.62-5.05c.24-.65.66-1.12.88-1.67a.41.41,0,0,1,.11.01,16,16,0,0,0,10.9,7.51Z" transform="translate(0.01 -0.01)" fill="#f9f9f9" fill-rule="evenodd"/>
</svg>
