<svg id="Component_70_1" data-name="Component 70 – 1" xmlns="http://www.w3.org/2000/svg" width="27.86" height="25.21" viewBox="0 0 27.86 25.21">
  <path id="Path_73" data-name="Path 73" d="M0,2.79A2.86,2.86,0,0,1,3.11,0C4.97,0,6.22,1.15,6.22,2.69A2.876,2.876,0,0,1,3.11,5.57,2.858,2.858,0,0,1,0,2.79ZM.61,7.98H5.6V25.21H.61V7.97Z" fill="#f9f9f9"/>
  <path id="Path_74" data-name="Path 74" d="M27.85,15.34V25.2H22.86V16.11c0-2.79-1.28-4.07-3.49-4.07-2.4,0-4.13,1.47-4.13,4.64V25.2H10.25V7.97h4.77V9.99a7.54,7.54,0,0,1,5.7-2.27c4.07,0,7.14,2.37,7.14,7.62Z" fill="#f9f9f9"/>
</svg>
