<svg id="Logo_Vector" data-name="Logo Vector" xmlns="http://www.w3.org/2000/svg" xmlns:xlink="http://www.w3.org/1999/xlink" width="175.054" height="43.074" viewBox="0 0 175.054 43.074">
  <defs>
    <clipPath id="clip-path">
      <rect id="Rectangle_16" data-name="Rectangle 16" width="175.054" height="43.074" fill="none"/>
    </clipPath>
  </defs>
  <path id="Path_1" data-name="Path 1" d="M18.649.015,15.75,6.7,0,43.074H5.816L18.664,13.42,28.7,36.616l4.447-3.167L21.572,6.708,18.674.015,18.664.01Z" transform="translate(0 -0.005)" fill="#fa47e5"/>
  <path id="Path_2" data-name="Path 2" d="M60.2,73.309,63,79.768h5.816l-4.168-9.626Z" transform="translate(-31.497 -36.699)" fill="#8c63ff"/>
  <path id="Path_3" data-name="Path 3" d="M185.65,0V18.594h-15.3V0h-5.817V30.55l5.817,2.047V24.41h15.3V37.98l5.816,2.046V0Z" transform="translate(-86.087 0)" fill="#ffe05d"/>
  <path id="Path_4" data-name="Path 4" d="M164.536,76.593h5.817V66.121l-5.817-2.047Z" transform="translate(-86.087 -33.524)" fill="#8c63ff"/>
  <path id="Path_5" data-name="Path 5" d="M208.82,84.747h5.816V81.7l-5.816-2.046Z" transform="translate(-109.257 -41.678)" fill="#8c63ff"/>
  <path id="Path_6" data-name="Path 6" d="M138.948,0v9.87l5.816-4.143V0Z" transform="translate(-72.699 0)" fill="#fa47e5"/>
  <g id="Group_16" data-name="Group 16">
    <g id="Group_15" data-name="Group 15" clip-path="url(#clip-path)">
      <path id="Path_7" data-name="Path 7" d="M106.083,23.789l-5.806,4.138c-.114-.02-.224-.04-.339-.05a9.529,9.529,0,0,0-1.07-.055h-.12a10.515,10.515,0,0,0-10.328,8.55l-5.856,4.168a16.972,16.972,0,0,1-.139-2.151A16.261,16.261,0,0,1,98.688,22.131h.239c.269,0,.533,0,.791.02.09,0,.179.01.269.015.169.01.344.025.513.04.1.01.209.025.319.035.149.02.3.035.453.06.11.015.224.035.334.05.144.025.284.05.423.08.115.02.229.045.344.07l.4.09c.119.03.239.06.353.09l.374.1c.119.035.239.07.363.11s.219.074.334.114.254.084.383.13c.05.02.1.045.154.064.339.125.667.264.991.413.055.025.11.05.164.08s.129.06.194.094" transform="translate(-43.126 -11.579)" fill="#fa47e5"/>
      <path id="Path_8" data-name="Path 8" d="M115.344,55.512V70.276h-5.816V66.482c-.149.124-.3.244-.458.369-.035.025-.074.055-.109.085-.144.11-.289.214-.433.318-.055.04-.1.075-.159.11-.14.1-.284.2-.429.289l-.179.12c-.14.089-.284.174-.429.259-.064.04-.134.079-.2.114-.144.084-.289.164-.433.244-.07.035-.134.065-.2.1-.154.08-.3.154-.458.229-.05.025-.1.045-.154.07-.334.154-.672.3-1.016.428-.045.02-.094.04-.139.055-.13.05-.259.09-.389.134-.11.04-.219.075-.329.114l-.369.1c-.12.04-.244.075-.369.1s-.234.065-.354.09-.264.065-.393.094-.234.045-.349.07l-.423.074c-.109.02-.224.035-.333.055-.15.02-.3.04-.453.055-.11.015-.214.025-.318.035-.169.02-.344.03-.513.04-.09,0-.179.015-.269.02-.259.01-.523.02-.792.02h-.239A16.27,16.27,0,0,1,82.717,56.169L88.573,52a10.639,10.639,0,0,0-.184,1.962A10.511,10.511,0,0,0,98.9,64.475h.119c.359,0,.717-.02,1.071-.054.124-.015.249-.04.373-.055.224-.035.448-.06.667-.1.17-.035.334-.084.5-.129s.339-.075.5-.124c.194-.065.383-.14.577-.215.124-.044.259-.084.383-.139.215-.09.419-.194.627-.3.095-.044.189-.09.284-.139.229-.124.453-.264.672-.4.06-.04.129-.075.189-.114.239-.159.473-.339.7-.518a.913.913,0,0,0,.1-.08q.366-.3.7-.628a.309.309,0,0,0,.04-.04,10.509,10.509,0,0,0,3.117-7.345v-.249c0-.13,0-.254-.015-.379Z" transform="translate(-43.278 -27.207)" fill="#8c63ff"/>
      <path id="Path_9" data-name="Path 9" d="M331.2,42.908a16.262,16.262,0,0,1-16.264,16.264h-.239c-.269,0-.533-.01-.791-.02-.09-.005-.179-.015-.269-.02-.169-.01-.344-.02-.513-.04-.11-.01-.214-.02-.319-.035-.149-.015-.3-.035-.453-.055-.114-.02-.224-.035-.334-.055l-.423-.074c-.115-.025-.229-.045-.349-.07s-.264-.06-.393-.095-.239-.055-.353-.09-.249-.065-.369-.1l-.369-.1c-.11-.04-.219-.074-.328-.114-.13-.045-.259-.084-.389-.134a1.449,1.449,0,0,1-.134-.055c-.349-.129-.687-.274-1.026-.428-.05-.025-.1-.045-.15-.07-.154-.075-.3-.15-.458-.229-.065-.035-.13-.065-.2-.1-.144-.08-.289-.159-.433-.244-.07-.035-.134-.075-.2-.114-.144-.085-.288-.17-.428-.259l-.179-.12c-.144-.094-.289-.189-.428-.289-.055-.035-.1-.07-.159-.109-.144-.1-.289-.209-.433-.319-.035-.03-.075-.06-.11-.09-.154-.12-.308-.239-.458-.364v3.795H298.43V45.543l5.831-3.152c-.01.11-.015.224-.015.339v.249a10.482,10.482,0,0,0,3.117,7.345.134.134,0,0,0,.04.035,9.264,9.264,0,0,0,.7.633c.03.03.07.05.1.08.229.179.458.359.7.518.06.04.124.075.185.114.224.14.443.279.677.4.09.05.189.09.284.14.2.1.413.209.627.3.124.055.254.095.383.14.195.074.384.149.578.214.164.05.334.084.5.124s.334.094.5.129c.219.045.443.07.668.1.124.015.249.04.373.055.353.035.707.055,1.07.055h.12a10.512,10.512,0,0,0,5.309-19.585l5.572-3.013a16.218,16.218,0,0,1,5.443,12.14" transform="translate(-156.142 -16.098)" fill="#fa47e5"/>
      <path id="Path_10" data-name="Path 10" d="M325.748,14.67l-5.572,3.012a10.439,10.439,0,0,0-5.308-1.439h-.12a9.586,9.586,0,0,0-1.071.055c-.124.01-.249.035-.373.055-.224.03-.448.055-.667.1-.169.035-.334.09-.5.129s-.334.08-.5.13c-.194.06-.383.139-.577.209-.13.05-.259.089-.383.139-.214.09-.423.2-.627.3-.095.045-.195.085-.284.134-.234.124-.453.264-.677.409-.06.04-.124.07-.184.109-.244.164-.473.339-.7.523-.03.025-.07.05-.1.075-.244.2-.478.413-.7.632-.015.015-.03.025-.04.035a10.466,10.466,0,0,0-3.1,7.011l-5.831,3.153V26.88c0-.025,0-.045,0-.07s0-.045,0-.065V0h5.816V14.351c.149-.124.3-.244.453-.363.04-.035.075-.065.115-.094.144-.11.288-.215.433-.319.055-.035.1-.074.16-.109.139-.1.278-.195.423-.289.065-.04.124-.08.185-.12.144-.085.284-.175.428-.259.065-.04.134-.075.2-.114.144-.08.288-.164.433-.239.07-.04.14-.07.2-.1.15-.08.3-.154.453-.224a1.8,1.8,0,0,1,.164-.075c.323-.154.657-.294,1-.423l.15-.06.388-.134c.11-.035.219-.074.329-.11s.244-.074.363-.109l.373-.1.354-.09.393-.09c.12-.025.234-.05.349-.07.139-.03.279-.055.423-.08.11-.015.219-.035.334-.05.149-.025.3-.04.453-.06.1-.01.209-.025.318-.035.169-.015.344-.03.513-.04.09-.005.179-.015.269-.015.259-.015.523-.02.792-.02h.239a16.206,16.206,0,0,1,10.821,4.118" transform="translate(-156.137 0)" fill="#22d6c1"/>
      <path id="Path_11" data-name="Path 11" d="M252.6,54.642v-2.3A13.3,13.3,0,0,1,231.811,41.7h-.025V22.12H237.6V41.352a7.5,7.5,0,0,0,14.371,3l4.313,10.293Z" transform="translate(-121.273 -11.573)" fill="#ffe05d"/>
      <path id="Path_12" data-name="Path 12" d="M280.566,22.12V54.642h-2.126l-4.312-10.293a7.516,7.516,0,0,0,.622-3V22.12Z" transform="translate(-143.426 -11.573)" fill="#22d6c1"/>
      <path id="Path_13" data-name="Path 13" d="M134.786,33.095c0,.025,0,.045,0,.07v1.424l-5.832-2.052a10.463,10.463,0,0,0-3.1-6.972.273.273,0,0,0-.04-.035,9.445,9.445,0,0,0-.7-.632c-.03-.025-.07-.05-.1-.08-.224-.179-.458-.354-.7-.518-.06-.04-.129-.075-.189-.115-.219-.139-.443-.279-.672-.4-.094-.05-.189-.089-.284-.139-.209-.1-.413-.209-.627-.3-.124-.05-.259-.089-.383-.139-.195-.07-.384-.149-.578-.209-.164-.05-.334-.084-.5-.129s-.329-.095-.5-.13c-.219-.045-.443-.07-.668-.1-.01,0-.025,0-.035,0l5.806-4.138c.09.04.175.085.259.129.065.035.134.065.2.1.144.074.289.159.433.239.065.04.134.074.2.114.144.085.284.175.428.264.06.035.12.074.184.114.14.095.284.189.423.289.055.035.1.075.159.109.144.1.289.209.433.319.035.03.075.06.114.09.154.12.3.244.453.369V16.154l5.816-4.143V33.03c0,.02,0,.045,0,.065" transform="translate(-62.716 -6.284)" fill="#ffe05d"/>
    </g>
  </g>
</svg>
