<svg xmlns="http://www.w3.org/2000/svg" width="41.155" height="41.155" viewBox="0 0 41.155 41.155">
  <path id="Path_399" data-name="Path 399" d="M126.029,26.247a3.189,3.189,0,0,0-4.822,0c-1.128,1.118-2.254,2.235-3.362,3.372a.766.766,0,0,1-.542.291.79.79,0,0,1-.387-.121c-.73-.4-1.506-.72-2.207-1.155a34.967,34.967,0,0,1-8.433-7.674,19.971,19.971,0,0,1-3.022-4.841.694.694,0,0,1,.171-.89c1.126-1.089,2.227-2.207,3.335-3.325a3.2,3.2,0,0,0-.01-4.936c-.882-.89-1.763-1.761-2.644-2.652-.91-.91-1.809-1.829-2.729-2.729a3.209,3.209,0,0,0-4.822.01C95.419,2.714,94.33,3.86,93.174,4.958A5.489,5.489,0,0,0,91.45,8.664a15.671,15.671,0,0,0,1.213,6.754,41.018,41.018,0,0,0,7.284,12.135,45.079,45.079,0,0,0,14.931,11.681,21.568,21.568,0,0,0,8.271,2.406c.178.011.355.015.53.015a5.9,5.9,0,0,0,4.671-1.995c.966-1.08,2.055-2.065,3.08-3.1a3.224,3.224,0,0,0,.018-4.907q-2.7-2.714-5.419-5.409m3.452,8.385c-.337.342-.683.676-1.029,1.012-.711.69-1.446,1.4-2.148,2.191a3.2,3.2,0,0,1-2.624,1.077c-.123,0-.25,0-.38-.011a18.613,18.613,0,0,1-7.221-2.133,42.577,42.577,0,0,1-14.031-10.982,38.124,38.124,0,0,1-6.815-11.333,12.9,12.9,0,0,1-1.047-5.575,2.762,2.762,0,0,1,.881-1.93c.713-.679,1.4-1.375,2.092-2.071.438-.442.877-.885,1.327-1.328a.9.9,0,0,1,.484-.3.915.915,0,0,1,.491.3c.6.591,1.2,1.191,1.794,1.792l.9.905c.449.454.9.9,1.346,1.351.432.432.866.866,1.3,1.306.506.509.476.6.007,1.07l-.462.468c-.938.948-1.874,1.892-2.864,2.849a3.417,3.417,0,0,0-.76,3.893,22.414,22.414,0,0,0,3.425,5.512,37.512,37.512,0,0,0,9.11,8.269,17.388,17.388,0,0,0,1.564.84c.262.129.524.257.742.375a3.5,3.5,0,0,0,1.737.476,3.437,3.437,0,0,0,2.506-1.119c1.084-1.111,2.185-2.2,3.332-3.342a.526.526,0,0,1,.953,0q2.708,2.694,5.408,5.4c.416.42.46.556-.022,1.043" transform="translate(-91.417 -0.5)" fill="#8a63ff"/>
</svg>
